# xmcd
#
# Track frame offsets: 
#        150
#        16088
#        29882
#        48427
#        68837
#        87130
#        100323
#        115798
#        133262
#        148690
#        164046
#        178716
#        196239
#        210539
#        228792
#
# Disc length: 3243 seconds
#
# Revision: 1
# Processed by: cddbd v1.5.2PL0 Copyright (c) Steve Scherf et al.
# Submitted via: ExactAudioCopy v0.95b4
#
DISCID=d30ca90f
DTITLE=Rod Stewart - The Great American Songbook - Volume III
DYEAR=2004
DGENRE=Pop
TTITLE0=Embraceable You
TTITLE1=For Sentimental Reasons
TTITLE2=Blue Moon
TTITLE3=What a Wonderful World
TTITLE4=Stardust
TTITLE5=Manhattan
TTITLE6='S Wonderful
TTITLE7=Isn't it Romantic
TTITLE8=I Can't get Started
TTITLE9=But not for Me
TTITLE10=A Kiss to Build a Dream on
TTITLE11=Baby' it's Cold Outside
TTITLE12=Night and Day
TTITLE13=A Nightingale Sang in Berkley Square
TTITLE14=You Belong to Me
EXTD=
EXTT0=
EXTT1=
EXTT2=
EXTT3=
EXTT4=
EXTT5=
EXTT6=
EXTT7=
EXTT8=
EXTT9=
EXTT10=
EXTT11=
EXTT12=
EXTT13=
EXTT14=
PLAYORDER=
